<?xml version="1.0" encoding="utf-8"?>
<!-- Generator: Adobe Illustrator 26.0.0, SVG Export Plug-In . SVG Version: 6.00 Build 0)  -->
<svg version="1.1" id="baf84d8f-0fd1-4801-b992-6edf2ca418db"
	 xmlns="http://www.w3.org/2000/svg" xmlns:xlink="http://www.w3.org/1999/xlink" x="0px" y="0px" viewBox="0 0 989.3 623.8"
	 style="enable-background:new 0 0 989.3 623.8;" xml:space="preserve">
<style type="text/css">
	.st0{fill:#E6E6E6;}
	.st1{fill:#FFFFFF;}
	.st2{fill:#F2F2F2;}
	.st3{fill:#FFB8B8;}
	.st4{fill:#3F3D56;}
	.st5{fill:#2F2E41;}
	.st6{fill:#CCCCCC;}
	.st7{fill:#6C63FF;}
	.st8{fill:#FFB6B6;}
	.st9{fill:#FD6584;}
	.st10{fill:#E4E4E4;}
	.st11{fill:#FF6584;}
	.st12{fill:#F0F0F0;}
</style>
<path class="st0" d="M461.7,141c42.5-26,96.5-12.4,125.2,33.7l-1,0.8c-28.3-45.5-81.6-59-123.6-33.3c-3.6,2.2-7,4.6-10.3,7.3
	c-43.2,35-53.4,103.6-22.8,153l-1,0.8c-31-50-20.7-119.4,23.1-154.9C454.6,145.6,458.1,143.2,461.7,141z"/>
<path class="st0" d="M687.1,252.1l-139.9-12.4c-4.5-0.4-7.9-4.9-7.6-10.1l6.1-77.6c0.4-5.2,4.3-9,8.8-8.6l139.9,12.4
	c4.5,0.4,7.9,4.9,7.6,10.1l-6.1,77.6C695.6,248.6,691.6,252.5,687.1,252.1z"/>
<path class="st1" d="M654,234.5c-1.1,0-2.1,0-3.2-0.1l-90.4-8c-7.6-0.7-13.3-8.3-12.7-16.9l0,0l2.1-30.3c0.6-8.7,7.2-15.2,14.8-14.5
	l117,10.4c7.6,0.7,13.3,8.3,12.7,16.9C692.6,216,675.1,234.5,654,234.5L654,234.5z"/>
<path class="st0" d="M678.7,199.1l-114.6-10.2c-1-0.1-1.8-1.1-1.7-2.2c0.1-1.1,1-2,2-1.9L679,194.9c1,0.1,1.8,1.1,1.7,2.2
	S679.7,199.2,678.7,199.1L678.7,199.1z"/>
<path class="st0" d="M631.1,203.1l-67.6-6c-1-0.1-1.8-1.1-1.7-2.2c0.1-1.1,1-2,2-1.9l67.6,6c1,0.1,1.8,1.1,1.7,2.2
	S632.1,203.2,631.1,203.1L631.1,203.1L631.1,203.1z"/>
<path class="st0" d="M646,212.7l-83.1-7.4c-1-0.1-1.8-1.1-1.7-2.2s1-2,2-1.9l0,0l83.1,7.4c1,0.1,1.8,1.1,1.7,2.2
	S647,212.8,646,212.7L646,212.7z"/>
<path class="st0" d="M677.7,357.4L537.8,345c-4.5-0.4-7.9-4.9-7.6-10.1l6.1-77.6c0.4-5.2,4.3-9,8.8-8.6L685,261.1
	c4.5,0.4,7.9,4.9,7.6,10.1l-6.1,77.6C686.2,354,682.2,357.8,677.7,357.4z"/>
<path class="st1" d="M644.6,339.9c-1,0-2.1,0-3.2-0.1l-90.4-8c-7.6-0.7-13.3-8.3-12.7-16.9l0,0l2.1-30.3c0.6-8.7,7.2-15.2,14.8-14.5
	l0,0l117,10.4c7.6,0.7,13.3,8.3,12.7,16.9l0,0C683.2,321.3,665.7,339.9,644.6,339.9z"/>
<path class="st0" d="M669.4,304.5l-114.6-10.2c-1-0.1-1.8-1.1-1.7-2.2s1-2,2-1.9l0,0l114.6,10.2c1,0.1,1.8,1.1,1.7,2.2
	S670.4,304.6,669.4,304.5z"/>
<path class="st0" d="M621.8,308.5l-67.6-6c-1-0.1-1.8-1.1-1.7-2.2s1-2,2-1.9l67.6,6c1,0.1,1.8,1.1,1.7,2.2S622.8,308.6,621.8,308.5z
	"/>
<path class="st0" d="M636.7,318.1l-83.1-7.4c-1-0.1-1.8-1.1-1.7-2.2s1-2,2-1.9l0,0L637,314c1,0.1,1.8,1.1,1.7,2.2
	S637.7,318.2,636.7,318.1z"/>
<path class="st0" d="M321.7,316.9c-7.5-19.3,0.2-41.9,17.1-50.4s36.7,0.2,44.2,19.6l0,0l-1.1,0.6c-7.2-18.6-26.3-27.1-42.6-18.9
	c-16.3,8.2-23.7,30-16.5,48.6l0,0L321.7,316.9z"/>
<path class="st2" d="M669,530.2c13.7-7.4,23.9-22.3,22.3-38.7c-12.3,11.3-29,17.7-46.2,17.5c-6.7-0.1-14.2-0.8-19.1,3.5
	c-3,2.7-4.4,6.9-4.6,11.2c-0.2,4.2,0.7,8.5,1.6,12.8l-0.3,1C638.8,538.7,655.4,537.6,669,530.2z"/>
<path class="st1" d="M691,491.5c-5.3,11.8-14.5,21.6-25.9,27.4c-2.5,1.3-5.2,2.2-7.9,2.6c-2.8,0.3-5.6-0.1-8.2-1.2
	c-2.5-1-4.9-2.3-7.5-2.7s-5.2,0.4-7.3,2.2c-2.4,2.2-3.9,5.1-5.2,8.1c-1.5,3.3-2.9,6.8-5.8,9c-0.3,0.3,0.1,0.8,0.5,0.6
	c5-3.9,5.7-11,9.6-15.7c1.9-2.4,4.6-3.7,7.5-3.6c2.7,0.2,5.2,1.6,7.7,2.6c2.5,1.1,5.3,1.7,8,1.5c2.8-0.3,5.5-1.1,8-2.3
	c5.5-2.6,10.6-6.2,15.1-10.7c5-4.9,9.1-10.8,12.1-17.5C691.8,491.4,691.2,491.1,691,491.5L691,491.5z"/>
<path class="st1" d="M668.9,517.2c3,4,7.8,5.4,12,3.5c0.4-0.2,0.1-0.9-0.3-0.7c-4,1.8-8.5,0.4-11.2-3.3
	C669.2,516.4,668.7,516.8,668.9,517.2L668.9,517.2z"/>
<path class="st1" d="M650.2,521c0.5-4.7,2.8-8.8,6.2-11.5c0.3-0.3-0.1-0.8-0.5-0.6c-3.5,2.8-5.9,7.1-6.4,11.9
	C649.5,521.4,650.2,521.5,650.2,521L650.2,521z"/>
<path class="st1" d="M683.7,503.9c-1.3-1.2-2-3.1-1.9-5c0.1-0.5-0.7-0.5-0.7-0.1c-0.2,2.1,0.6,4.2,2.1,5.5c0.1,0.2,0.3,0.2,0.5,0.1
	C683.9,504.3,683.9,504.1,683.7,503.9C683.8,503.9,683.8,503.9,683.7,503.9L683.7,503.9z"/>
<path class="st2" d="M646.2,457c0,0.3-0.1,0.6-0.1,0.9c-0.6,3.8-1.5,7.5-2.7,11.1c-0.1,0.3-0.2,0.6-0.3,0.8
	c-3,8.7-7.6,16.6-13.5,23.2c-2.4,2.7-5,5.1-7.7,7.3c-3.8,3.1-8.2,6.1-10.6,10.2c-0.3,0.4-0.5,0.9-0.7,1.3l10.9,25.1
	c0.1,0,0.1,0.1,0.2,0.1l0.4,1c0.2-0.1,0.3-0.2,0.5-0.3c0.1-0.1,0.2-0.1,0.3-0.2c0.1,0,0.1-0.1,0.2-0.1c0,0,0,0,0.1,0
	s0.1-0.1,0.2-0.1c0.9-0.6,1.7-1.2,2.6-1.9l0,0c6.5-4.9,12.7-10.4,17.7-16.7c0.2-0.2,0.3-0.4,0.5-0.6c2.2-2.9,4.2-5.9,6-9.2
	c0.9-1.8,1.8-3.6,2.5-5.5c1.9-4.9,3.1-10.1,3.4-15.5c0.6-10.7-2.2-21.8-9.1-30.4C646.5,457.4,646.4,457.2,646.2,457z"/>
<path class="st1" d="M645.9,457.1c3,13.3,2,27.2-3.1,39.1c-1.1,2.6-2.5,5-4.3,7.1c-1.9,2-4.3,3.4-6.9,4c-2.5,0.7-5.1,1-7.3,2.3
	s-3.7,3.6-4.1,6.4c-0.5,3.3,0.1,6.7,0.9,10.1c0.9,3.7,1.8,7.5,1,11.2c-0.1,0.4,0.6,0.6,0.7,0.2c1.4-6.4-2.3-12.8-2.1-19.3
	c0.1-3,1-5.9,3.5-7.6c2.1-1.5,4.8-1.9,7.3-2.5s4.9-1.8,6.9-3.7c1.9-1.9,3.5-4.3,4.6-6.9c2.6-5.7,4.3-12,4.9-18.4
	c0.8-7.5,0.3-15-1.3-22.3C646.5,456.5,645.8,456.7,645.9,457.1L645.9,457.1z"/>
<path class="st1" d="M644.6,492.5c4.5,1.6,9.2-0.3,11.1-4.4c0.2-0.4-0.5-0.8-0.6-0.4c-1.8,3.9-6.1,5.6-10.3,4.1
	C644.3,491.7,644.2,492.4,644.6,492.5L644.6,492.5z"/>
<path class="st1" d="M632.9,507.2c-2.3-4-3.1-8.9-2.2-13.5c0.1-0.4-0.6-0.6-0.7-0.2c-1,4.9-0.1,9.9,2.3,14.1
	C632.5,508,633.1,507.6,632.9,507.2z"/>
<path class="st1" d="M647.8,472.1c-1.8-0.2-3.4-1.4-4.4-3.1c-0.2-0.4-0.8-0.1-0.6,0.4c1.1,1.9,2.8,3.1,4.8,3.4
	c0.2,0,0.4-0.1,0.4-0.3C648.1,472.3,648,472.1,647.8,472.1z"/>
<path class="st3" d="M669.3,351.9l-8.3-50.5l-16.3-24.5l-12.1,9c1.7,10.6,14.6,30.3,14.6,30.3l11.5,39.1c0,0.2-0.1,0.4-0.1,0.6
	c-0.6,4,1.8,7.7,5.2,8.4c3.5,0.7,6.8-2,7.4-6C671.4,356,670.8,353.6,669.3,351.9L669.3,351.9z"/>
<path class="st4" d="M632.9,291.2l13.7-12.7v-0.1c2.6-6.6-3.1-18-8.3-26.4c-3.6-5.7-10.4-7.3-15.7-3.6l0,0
	c-3.8,2.7-5.9,7.6-5.5,12.7l1.2,12.7L632.9,291.2z"/>
<polygon class="st3" points="584.4,542.8 575.3,542.8 571,502.6 584.4,502.6 "/>
<path class="st5" d="M586.8,539.4h-2.6l-10-4.6l-5.4,4.6l0,0c-6.3,0-11.4,5.8-11.4,13.1v0.4h29.4V539.4z"/>
<polygon class="st3" points="624.9,542.8 615.8,542.8 611.4,502.6 624.9,502.6 "/>
<path class="st5" d="M627.2,539.4h-2.6l-10-4.6l-5.4,4.6l0,0c-6.3,0-11.4,5.8-11.4,13.1v0.4h29.4V539.4z"/>
<path class="st5" d="M638.8,369.9c0,0,1.1,14.6-1.6,28.6s-2.7,53.3-2.7,53.3l-5.9,76.7l-17.6-1.8l-4.8-128.2l-17,43.1l1.6,6.1
	l-2.1,1.5c0,0,1.6,11.8,0.5,11.8s-3.7,1.8-3.7,1.8l2.1,62.6l-18.1-0.6l-6.4-88.1l6.9-50.4l0.5-9.7l2.4,0.1l1.2-4.1l2.2-7
	L638.8,369.9z"/>
<path class="st4" d="M639.7,373l0.1-0.2c5.1-8.1-2.6-27.5-3.7-30.4l4.8-1.8l-1.1-10.6l-0.5-4.7l3.7-4.2V321l2.1-21.3l3.1-14.1
	c2.4-10.9-0.6-22.4-7.7-30l-7.2-7.7l-8.7-14.7h-14l-4.8,10.4c-9.6,2.5-16.3,12.6-15.8,23.8l1.1,27.2l-4.3,33.8v6.1l-4.8,6.1l1,6
	l-3.7,1.8l-1.6,8.6c-0.7,1-5.1,7.7-5.1,9.5c0,0.3,0.2,0.5,0.6,0.8c3,2.3,19.6,7.1,26.9,3.7c7.8-3.6,38.9,1.8,39.2,1.8L639.7,373z"/>
<path class="st6" d="M517.8,552.6c0,0.4,0.3,0.8,0.7,0.8H686c0.4,0,0.7-0.4,0.7-0.8s-0.3-0.8-0.7-0.8H518.5
	C518.1,551.8,517.8,552.2,517.8,552.6L517.8,552.6z"/>
<ellipse class="st3" cx="615.9" cy="207.3" rx="18.6" ry="21.2"/>
<path class="st5" d="M614.1,228.8c2.9,0,5.7-0.3,8.6-0.9c2.8-0.7,9-6.2,10.7-9.4l0,0c1.3-2.4,2-6.1,2.4-8.8
	c1.1-7.2-0.5-14.6-4.4-20.3c-0.7-1.2-1.8-2.1-2.9-2.7c-0.1,0-0.2-0.1-0.3-0.1c-1.7-0.5-3.3-1.5-4.4-3c-0.2-0.3-0.5-0.6-0.7-0.8
	c-1.3-1.2-2.9-2.1-4.6-2.5c-2.7-0.7-6.6,0.2-11.5,2.8c-2.5,1.3-5.2,0.9-7.3,0.5c-0.2,0-0.5,0.1-0.6,0.3c-0.9,1-2,1.6-3.3,1.6
	c-0.8,0.1-1.5,1.3-2.4,2.9c-0.2,0.4-0.5,0.8-0.6,1v-0.5l-0.4,0.5c-2.1,2.8-1.8,7.1,0.6,9.5c0.7,0.7,1.4,1.1,2.3,1.4
	c0.8,0.2,1.5,0.3,2.3,0.4c0.5,0,1,0.1,1.4,0.1c3.1,0.6,5.7,3.1,6.8,6.4c0.5,1.4,1.8,2,3,1.5c0.2-0.1,0.4-0.2,0.5-0.3
	c1-0.9,2.3-1.2,3.5-0.8c0.5,0.3,0.9,0.8,1.2,1.4c0.3,0.7,0.7,1.3,1.3,1.6c1.9,1.1,2.2,6,1.6,10.2c-0.6,4-1.8,6.9-3,7.1
	c-0.9,0.1-1,0.2-1.1,0.4l-0.1,0.2l0.1,0.2C613,228.8,613.6,228.9,614.1,228.8z"/>
<ellipse class="st7" cx="410.1" cy="295.9" rx="36.9" ry="42.1"/>
<path class="st3" d="M609.8,289.7l-12.2-8.9c-7.8,6.1-18.2,27.7-18.2,27.7l-26.5,28c-3.5,0.7-5.8,4.4-5.2,8.4s3.9,6.6,7.4,5.9
	c2.3-0.4,4.1-2.2,4.9-4.7l37-29.4L609.8,289.7z"/>
<path class="st4" d="M608.7,293.3l8.1-22.2l-2.9-12.3c-1.2-4.9-4.7-8.6-9.1-9.6l0,0c-6.1-1.3-11.9,3-13.5,9.8
	c-2.2,10-3.9,22.9,0.6,28v0.1L608.7,293.3z"/>
<path class="st2" d="M136.4,540.6c-15.9-9.3-27.4-27.3-25-46.5c14.1,13.9,33.6,22.1,53.9,22.6c7.9,0.2,16.8-0.4,22.4,4.9
	c3.5,3.3,5,8.4,5,13.4c0.1,5-1.1,10-2.3,15l0.3,1.2C171.8,551.8,152.3,549.9,136.4,540.6z"/>
<path class="st1" d="M111.8,494c5.8,14.1,16.3,26.1,29.6,33.3c2.9,1.7,6,2.8,9.2,3.5c3.3,0.5,6.6,0.1,9.7-1.1c3-1.1,5.9-2.5,9-2.9
	s6.2,0.7,8.5,3c2.8,2.6,4.4,6.2,5.8,9.8c1.6,4,3.2,8.1,6.5,10.9c0.4,0.3-0.2,1-0.6,0.6c-5.7-4.8-6.3-13.2-10.8-19
	c-2.1-2.7-5.1-4.7-8.7-4.5c-3.2,0.2-6.2,1.6-9.2,2.8s-6.3,1.7-9.5,1.4c-3.2-0.4-6.4-1.5-9.3-3.1c-6.4-3.3-12.3-7.8-17.4-13.3
	c-5.7-6-10.3-13.2-13.7-21.1C110.8,493.8,111.6,493.6,111.8,494L111.8,494z"/>
<path class="st1" d="M136.9,525.3c-3.5,4.5-9.6,6.1-14.3,3.6c-0.5-0.2-0.1-1,0.4-0.8c4.6,2.2,10,0.9,13.3-3.4
	C136.7,524.3,137.3,524.8,136.9,525.3z"/>
<path class="st1" d="M158.9,530.5c-0.5-5.5-3-10.5-6.9-13.8c-0.4-0.3,0.2-1,0.6-0.6c4.1,3.4,6.7,8.6,7.2,14.3
	C159.7,531,158.9,531,158.9,530.5z"/>
<path class="st1" d="M119.9,508.9c1.6-1.3,2.5-3.5,2.4-5.8c0-0.5,0.8-0.6,0.8-0.1c0.1,2.5-0.8,4.9-2.6,6.4c-0.2,0.2-0.4,0.2-0.6,0.1
	C119.8,509.4,119.8,509.1,119.9,508.9L119.9,508.9L119.9,508.9z"/>
<path class="st2" d="M165.7,455.2c0,0.3,0.1,0.7,0.1,1c0.6,4.5,1.5,8.9,2.8,13.2c0.1,0.3,0.2,0.7,0.3,1c3.3,10.4,8.4,19.9,15.1,27.9
	c2.7,3.3,5.7,6.3,8.8,9c4.4,3.8,9.5,7.5,12.2,12.5c0.3,0.5,0.5,1.1,0.8,1.6l-13.6,29.1c-0.1,0.1-0.1,0.1-0.2,0.2l-0.5,1.2
	c-0.2-0.1-0.4-0.3-0.5-0.4c-0.1-0.1-0.2-0.2-0.3-0.2c-0.1-0.1-0.1-0.1-0.2-0.1c0,0,0,0-0.1,0s-0.1-0.1-0.2-0.1c-1-0.8-2-1.5-3-2.3
	l0,0c-7.5-6-14.6-12.8-20.3-20.4c-0.2-0.2-0.4-0.5-0.5-0.7c-2.5-3.5-4.8-7.2-6.8-11.1c-1.1-2.1-2-4.3-2.8-6.6
	c-2.1-5.8-3.3-12.1-3.5-18.4c-0.4-12.7,3.3-25.6,11.7-35.4C165.3,455.7,165.5,455.5,165.7,455.2z"/>
<path class="st1" d="M166,455.4c-4,15.5-3.2,32,2.4,46.2c1.2,3.2,2.8,6.1,4.9,8.6c2.2,2.5,5,4.2,8,5c2.9,0.9,5.9,1.4,8.5,3
	c2.5,1.6,4.3,4.4,4.7,7.7c0.5,3.9-0.4,7.9-1.4,11.8c-1.1,4.3-2.4,8.8-1.6,13.2c0.1,0.5-0.7,0.7-0.8,0.2c-1.4-7.6,3.1-15,3.1-22.6
	c0-3.6-1-7-3.8-9.1c-2.5-1.8-5.6-2.4-8.6-3.3c-3-0.8-5.7-2.3-8-4.6c-2.2-2.4-3.9-5.2-5.2-8.3c-2.9-6.9-4.7-14.3-5.2-21.9
	c-0.7-8.8,0.1-17.7,2.3-26.2C165.4,454.7,166.2,454.9,166,455.4L166,455.4z"/>
<path class="st1" d="M166.4,497.2c-5.3,1.7-10.8-0.8-12.9-5.7c-0.2-0.5,0.6-0.9,0.8-0.4c1.9,4.6,7.1,6.9,12,5.3
	C166.8,496.2,166.9,497,166.4,497.2L166.4,497.2z"/>
<path class="st1" d="M179.8,515c2.9-4.6,3.9-10.3,3-15.9c-0.1-0.5,0.7-0.7,0.8-0.2c1,5.8-0.2,11.7-3.1,16.5
	C180.2,515.9,179.5,515.5,179.8,515L179.8,515z"/>
<path class="st1" d="M163.3,473c2.1-0.2,4-1.4,5.2-3.4c0.3-0.5,1,0,0.7,0.5c-1.3,2.2-3.5,3.6-5.8,3.8c-0.2,0-0.4-0.1-0.5-0.3
	C162.9,473.2,163.1,473,163.3,473z"/>
<polygon class="st8" points="213.7,309.3 214.9,322 214.2,338.6 246.4,334.2 249.5,309.3 245.6,309.3 "/>
<polygon class="st8" points="197,539.2 204.1,539.2 207.4,508.2 197,508.2 "/>
<path class="st5" d="M194.7,533.7l11.3-0.8v5.5l10.7,8.4c1.4,1.1,1.7,3.2,0.8,4.8c-0.6,0.9-1.5,1.5-2.5,1.5h-13.4l-2.3-5.4l-0.9,5.4
	h-5.1L194.7,533.7z"/>
<polygon class="st8" points="236.6,539.2 243.6,539.2 247,508.2 236.6,508.2 "/>
<path class="st5" d="M234.3,533.7l11.3-0.8v5.5l10.7,8.4c1.4,1.1,1.7,3.2,0.8,4.8c-0.6,0.9-1.5,1.5-2.5,1.5h-13.4l-2.3-5.4l-0.9,5.4
	h-5.1L234.3,533.7z"/>
<path class="st5" d="M194,512.5L194,512.5l1.4-50.4c-1.8-3.9-1.7-8.6,0.2-12.5l0.2-0.4l-0.5-2.7c-0.6-3.4-0.3-7,0.8-10.2l1.3-47
	c-4.5-33.4,17-55.2,17-55.2h32.2l6.9,27.1c4.6,50.9,3.7,100.5-3.5,148.5l0.2,0.1c0.7,0.3,1,1.4,0.7,2.5c-0.3,1.1-1.2,1.8-1.9,1.5
	l-17-0.7c-0.7-0.3-1-1.4-0.7-2.5s1.2-1.8,1.9-1.5l1.2,0.7l-2.5-48.7l0.3-8.9l-0.6-10.1l-2.6-45.4l-9.9,55.8L209,513
	c0.8,0.8,0.8,2.1,0.1,3c-0.4,0.4-0.9,0.7-1.4,0.7H194c-1,0-1.9-1-1.9-2.1C192.1,513.4,193,512.5,194,512.5L194,512.5L194,512.5z"/>
<ellipse class="st8" cx="219.4" cy="224.8" rx="17.3" ry="19.7"/>
<path class="st5" d="M143.6,316c2.4-6.4,5.8-12.4,9.9-17.6c-3.5,6.3-5.5,13.6-5.8,21.1c1.3,0.9,2.6,1.7,3.9,2.4
	c4.1,2,8.5,3.1,12.9,3.3c2.4-9.1,6.5-17.5,12.1-24.6c-4,7.3-6,15.8-5.8,24.5c5-0.5,9.8-1.7,14.5-3.6c7.1-2.8,13.9-6.9,18.8-13.3
	c5.3-7,7.9-16.2,8.7-25.3c0.8-9.2,0.1-18.4-0.7-27.6c-0.4-4.4,2.8-9.4,2.4-13.8h-0.3c-1.7-2.6-3.4-5.3-4.2-8.4
	c-0.8-3.1-0.6-6.8,1.3-9.2c1.1-1.3,2.4-2.2,3.8-2.7c0.1-0.2,0.3-0.4,0.4-0.6c2.8-3.4,6.2-6.3,9.9-8.4c-2.7,2.3-4.4,4.9-5.3,7.6
	c2.3-0.6,4.6-1.2,6.9-1.7c0.8-0.9,1.6-1.8,2.4-2.7c1.2-1.2,1.6-1.3,3.1-2.5c-1.2,1.2-2.1,2.7-2.7,4.4c3-0.9,5.9-2.1,7.5-5
	c2.6-4.8-0.5-11.3-4.7-14.2c-6.3-4.1-14.2-3.1-19.6,2.5c-6.1-5.2-14.9-5.1-21.7-1.2c-4.5,2.7-8.4,6.5-11.3,11.2
	c1.7-0.2,3.4-0.4,5.1-0.4c-2.4,0.4-4.7,1.4-6.7,3c-0.9,1.6-1.7,3.2-2.4,4.9c-0.5,1.1-0.9,2.2-1.4,3.3c-2.6,6.8-4.3,14.1-6.1,21.3
	c-2.1,8.4-4.3,16.8-8.2,24.3c-5.9,11.4-15.3,19.9-26.4,24C133.2,300.3,137.3,309.6,143.6,316z"/>
<path class="st7" d="M236.8,257.7l-3.4-1.4l-4.2-7.8l-15.1,1.4l-3.7,8.4l-8.8,7.7l3.9,23.2l6,28.2l40.1-5.7v-21.2
	c0,0,7.3-16.8-4.5-23L236.8,257.7z"/>
<path class="st8" d="M298.6,331.3c-2.9,1.3-6.3-0.3-7.5-3.6c-0.1-0.4-0.2-0.7-0.3-1.1l-44.7-30.9l8.2-10.8l41.4,33.8
	c3.2-0.5,6.1,2,6.5,5.6C302.6,327.3,301.1,330.2,298.6,331.3L298.6,331.3z"/>
<path class="st7" d="M231.2,281c0,0-2.1,2.5,3.2,6.5c4.3,3.2,23.5,19.2,30.2,21.7c-0.2,2.3,1.1,4.5,3,5.3l6.1-15.4
	c-1.3-3.5-3.5-2.7-4.6-1.9l-7.4-6.4L243.6,270l-10.9,9.2L231.2,281z"/>
<path class="st9" d="M213.3,200.9c-4.2,7.1-5.3,16-2.9,24.2"/>
<path class="st6" d="M125.6,552.6c0,0.4,0.3,0.8,0.7,0.8l0,0h167.4c0.4,0,0.7-0.4,0.7-0.8s-0.3-0.8-0.7-0.8H126.3
	C125.9,551.8,125.6,552.2,125.6,552.6L125.6,552.6z"/>
<path id="a4a87c0b-578c-404f-b0e7-3c25016717c2" class="st0" d="M189.4,368.1c-0.9,0.3-1.3,1.4-1,2.4l23.3,76.8
	c0.3,1,1.3,1.5,2.1,1.2l135.7-54.4c0.9-0.3,1.3-1.4,1-2.4l-23.3-76.8c-0.3-1-1.3-1.5-2.1-1.2L189.4,368.1z"/>
<path class="st1" d="M223.8,437.4c-5.5,0-10.4-3.9-12.2-9.8l-12.8-41.4c-2.4-7.7,1.1-16.1,7.9-18.8l68.6-27.7
	c26.7-10.8,56.1,5.2,65.5,35.7c2.4,7.7-1.1,16.1-7.9,18.8l-0.1-0.3l0.1,0.3L228,436.5C226.7,437.1,225.2,437.4,223.8,437.4z"/>
<path id="e6660b72-17a8-4076-a000-8bf222be7673" class="st0" d="M314.8,355.8l-61.4,24.6c-0.9,0.3-1.9-0.6-2.4-2.1s-0.1-3,0.7-3.3
	l61.4-24.6c0.9-0.3,1.9,0.6,2.4,2.1S315.6,355.5,314.8,355.8z"/>
<path id="f689c0b7-f689-4c10-b0b9-25ad5f15d9dd" class="st0" d="M319.5,371.3l-61.4,24.6c-0.9,0.3-1.9-0.6-2.4-2.1s-0.1-3,0.7-3.3
	l61.4-24.6c0.9-0.3,1.9,0.6,2.4,2.1C320.7,369.4,320.4,370.9,319.5,371.3z"/>
<path id="f731b694-f804-4551-a9ab-28894637a524" class="st0" d="M266.1,431.8"/>
<path class="st10" d="M245,388.8c0.7,2.1,1,4.4,0.9,6.6c0,1-0.1,2.1-0.3,3.1c-1.6,10.3-10.3,17.1-19.3,15.2
	c-2.9-0.6-5.6-2.1-7.8-4.3c-0.2-0.2-0.4-0.4-0.7-0.7c-6.6-7.2-6.8-19.2-0.5-26.7s16.8-7.8,23.4-0.6
	C242.7,383.5,244.2,386.1,245,388.8z"/>
<ellipse class="st9" cx="230.1" cy="394.4" rx="3.2" ry="3.6"/>
<path class="st4" d="M218,408.8c0.8-2.2,1.8-5.4,4-4.2c1.1,0.5,3.1,2.2,3.9,0.3l6.3-14.9c0.5-1.2,1.7-1.6,2.7-1.1l0,0l11.1,6.6
	c0,1-0.1,2.1-0.3,3.1l-27.1,10.9L218,408.8z"/>
<path class="st8" d="M221.2,364.6c-3-1.3-4.4-5.1-3.3-8.5c0.1-0.4,0.3-0.7,0.4-1l-14.2-57.5l12.4-1.5l10,57c2.6,2.1,3.2,6.2,1.4,9.2
	C226.5,364.8,223.7,365.8,221.2,364.6L221.2,364.6z"/>
<path class="st7" d="M202.1,266.1c0,0-3,0.1-1.5,7.3c1.2,5.7,5.6,41.6,9.1,48.7c-1.5,1.6-1.9,4.1-1,6.2l13.7-6.5
	c1.1-3.6,0.3-6.9-1-7.2l-1.6-10.5l-2.4-35.1l-13.1-3.1L202.1,266.1z"/>
<path class="st7" d="M325.8,417.3l-19,0.9c-0.8,0-1.6-0.3-2.2-1.1c-0.5-0.7-0.8-1.6-0.6-2.5c1.5-9.1,1-18.4-1.2-27.3
	c-0.4-1.4,0.2-2.9,1.3-3.6c7.8-4.6,15.1-4.8,21.7-0.7c0.7,0.4,1.2,1.2,1.4,2.1c1.7,9.7,2.1,19.6,1.2,29.4
	C328.2,416.1,327.1,417.3,325.8,417.3z"/>
<path class="st1" d="M325,403.1l-14.5,0.7c-0.8,0-1.4-0.6-1.4-1.5s0.6-1.6,1.3-1.6l0,0l14.5-0.7c0.8,0,1.4,0.6,1.4,1.5
	S325.7,403.1,325,403.1L325,403.1L325,403.1z"/>
<path class="st1" d="M324.8,397.7l-14.5,0.7c-0.8,0-1.4-0.6-1.4-1.5s0.6-1.6,1.3-1.6l14.5-0.7c0.8,0,1.4,0.6,1.4,1.5
	C326.1,396.9,325.5,397.6,324.8,397.7z"/>
<path class="st7" d="M673,247.8l-18.8-2.8c-0.8-0.1-1.5-0.7-2-1.5c-0.4-0.8-0.5-1.7-0.2-2.6c2.8-8.7,3.8-17.9,2.9-27.1
	c-0.1-1.4,0.6-2.8,1.8-3.3c8.4-3,15.6-1.8,21.4,3.5c0.6,0.6,1,1.4,1,2.3c0.2,9.8-0.8,19.7-3.2,29.2C675.6,247,674.3,248,673,247.8z"
	/>
<path class="st1" d="M674.3,233.6l-14.4-2.2c-0.7-0.1-1.3-0.9-1.2-1.7c0.1-0.9,0.8-1.5,1.5-1.3l0,0l14.4,2.2
	c0.7,0.1,1.3,0.9,1.2,1.7S675,233.7,674.3,233.6L674.3,233.6z"/>
<path class="st1" d="M674.9,228.2l-14.4-2.2c-0.7-0.1-1.3-0.9-1.2-1.7c0.1-0.9,0.8-1.5,1.5-1.3l0,0l14.4,2.2
	c0.7,0.1,1.3,0.9,1.2,1.7C676.4,227.7,675.7,228.3,674.9,228.2L674.9,228.2z"/>
<path class="st1" d="M422,289.5h-6.3v-7.2c0-3.6-2.5-6.5-5.7-6.5c-3.1,0-5.7,2.9-5.7,6.5v7.2H398c-3.1,0-5.7,2.9-5.7,6.5
	s2.5,6.5,5.7,6.5h6.3v7.2c0,3.6,2.5,6.5,5.7,6.5c3.1,0,5.7-2.9,5.7-6.5v-7.2h6.3c3.1,0,5.7-2.9,5.7-6.5S425.2,289.5,422,289.5z"/>
<ellipse class="st4" cx="625.2" cy="150.1" rx="6" ry="6.8"/>
<ellipse class="st4" cx="257.8" cy="343.1" rx="6" ry="6.8"/>
<path class="st7" d="M794.3,355.9l14.8-11.7c-1.3-9.8-5-19.2-10.8-27.2c-1.1,17.6-19.5,28.8-26.2,45.1c-4.2,10.3-3.5,22,2,31.7
	l1,13.4c16.2-7.8,28.2-22.2,32.8-39.6c1.2-4.8,1.8-9.8,1.8-14.8C802.2,354.7,794.3,355.9,794.3,355.9z"/>
<path class="st7" d="M759.1,473.9c-5.9,1.3-11,2.1-11,2.1l9.1-7.2c-2.1-6-3.2-12.1-1.8-18.3c-25.9,20.7-30.1,58.6-9.3,84.5
	c2.3,2.9,4.9,5.6,7.7,8l4.5-12.5c7.8-7.9,11.6-18.8,10.3-29.8C767.4,491.4,762.7,482.7,759.1,473.9z"/>
<path class="st7" d="M753.1,327.2c-3.1,2.7-6.1,5.7-8.8,8.7L749,325c-3.6-1.4-7.6-1.1-11,0.7c-3.9,2.3-6.2,6.7-6.7,11.2
	c-0.3,4.5,0.7,9,2.8,13.1c3.7,7.4,9.6,13.3,17,17c3.6-5.6,7-11.4,8.4-17.9c1.5-6.6,0.7-13.9-3.5-19.2
	C755.2,328.9,754.2,328,753.1,327.2z"/>
<path class="st7" d="M826.3,446.9L840,436c1.1-6.2,1.3-12.5,0.5-18.7c-9.2,15-30.8,16.2-44.4,27.4c-8.6,7.1-13.4,17.8-13.2,28.9
	l-5.4,12.3c17.9,0.8,35.3-6.4,47.6-19.5c5.7-6.3,10-13.7,12.7-21.8C831.7,446.1,826.3,446.9,826.3,446.9z"/>
<path class="st4" d="M751.2,540.8c-2.6,3.4-5.4,6.6-8.3,9.8c1.1,0.3,2.2,0.7,3.2,1c2.6-2.8,5-5.7,7.3-8.7c0.4-0.5,0.8-1,1.2-1.5
	c4.2-5.6,8.1-11.5,11.5-17.6c6.5-11.8,11.4-24.5,14.4-37.7c0.1-0.2,0.1-0.5,0.2-0.7c0.8-3.6,1.5-7.3,2-11c0.1-0.7,0.2-1.5,0.3-2.2
	c0.2-2,0.5-4.1,0.6-6.1c0.6-7.4,0.6-14.8,0.1-22.2c-1-12.7-3.6-25.1-7.9-37.1c-0.3-0.8-0.6-1.7-0.9-2.5c-0.2-0.5-0.4-1-0.6-1.5
	c-5.1-13.2-12.1-25.5-20.8-36.7c-0.3-0.4-0.6-0.8-1-1.2c-0.8-0.9-1.5-1.9-2.3-2.8c-0.4-0.6-1.3-0.7-1.8-0.2
	c-0.1,0.1-0.2,0.2-0.3,0.3c-0.5,0.6-0.5,1.4,0,2c0.6,0.8,1.3,1.5,1.9,2.3c0.8,0.9,1.5,1.8,2.2,2.8c15.4,20.4,25.1,44.5,28,69.9
	c1.7,15.7,0.8,31.5-2.8,46.8l0,0c-2.1,9.2-5.2,18.2-9.2,26.9c-0.8,1.7-1.6,3.4-2.5,5.1c-2.2,4.4-4.7,8.7-7.3,12.8
	C756.1,534.2,753.7,537.5,751.2,540.8z"/>
<ellipse class="st11" cx="339.1" cy="109.7" rx="37.1" ry="40.4"/>
<path class="st12" d="M406,78.7c-18-2.6-38.5,7.9-43.2,27c-3.1-8.8-12.1-13.3-20.2-10c-4.8,2-8.4,6.3-9.7,11.7l2.1,1.6
	c38.5,9.1,78.4,8.9,116.9-0.6C439.4,94.1,424,81.3,406,78.7z"/>
<path class="st12" d="M328.9,132.6c-18-2.6-38.5,7.9-43.2,27c-3.1-8.8-12.1-13.3-20.2-10c-4.8,2-8.4,6.3-9.7,11.7l2.1,1.6
	c38.5,9.1,78.4,8.9,116.9-0.6C362.3,148,346.9,135.2,328.9,132.6z"/>
</svg>
